<?xml version="1.0" standalone="no"?>
<!DOCTYPE svg PUBLIC "-//W3C//DTD SVG 20010904//EN"
 "http://www.w3.org/TR/2001/REC-SVG-20010904/DTD/svg10.dtd">
<svg version="1.0" xmlns="http://www.w3.org/2000/svg"
 width="336.000000pt" height="484.000000pt" viewBox="0 0 336.000000 484.000000"
 preserveAspectRatio="xMidYMid meet">
<metadata>
Created by potrace 1.16, written by Peter Selinger 2001-2019
</metadata>
<g transform="translate(0.000000,484.000000) scale(0.100000,-0.100000)"
fill="#000000" stroke="none">
<path d="M1175 2534 c-22 -9 -116 -31 -210 -50 -93 -20 -205 -47 -248 -61 -98
-33 -109 -49 -83 -127 15 -43 16 -56 6 -73 -11 -17 -10 -23 9 -42 11 -11 21
-25 21 -31 0 -25 29 -6 45 30 10 22 24 40 32 40 17 0 17 1 -13 -55 -16 -31
-23 -57 -19 -72 3 -15 1 -23 -7 -23 -58 0 -111 -39 -74 -53 19 -8 49 -65 43
-81 -3 -7 -24 -16 -46 -20 -49 -7 -54 -30 -16 -66 23 -22 24 -25 8 -42 -14
-15 -14 -24 -4 -58 13 -44 32 -51 65 -23 12 10 15 11 9 3 -7 -8 -13 -31 -13
-52 0 -31 5 -40 23 -47 12 -5 32 -20 44 -33 l22 -24 -47 -34 c-52 -39 -64 -65
-34 -73 21 -5 46 -38 57 -75 6 -20 1 -25 -34 -39 -53 -21 -52 -37 1 -116 39
-58 143 -191 178 -227 9 -9 28 -32 44 -53 16 -20 36 -37 46 -37 30 0 90 29
279 137 101 58 227 125 280 150 143 65 145 67 158 95 13 25 13 26 55 11 60
-21 143 -11 218 27 73 37 155 56 275 64 85 6 189 21 227 32 16 5 16 2 3 -37
-20 -56 -19 -72 8 -97 29 -27 62 -30 54 -4 -2 9 -13 45 -22 79 -10 34 -15 68
-12 76 3 8 28 22 56 32 46 15 51 20 51 46 0 15 14 55 30 87 33 65 36 89 18
139 -24 66 -119 69 -145 4 -8 -20 -25 -47 -38 -61 -23 -24 -29 -25 -115 -22
l-91 3 31 35 c33 38 39 69 15 78 -22 8 -19 62 5 86 29 29 26 36 -28 60 -41 19
-48 26 -44 45 4 26 2 26 -178 40 -96 8 -110 12 -110 36 0 13 7 19 23 19 18 0
26 11 41 53 10 28 21 71 23 94 5 42 3 44 -66 113 -39 38 -71 74 -71 79 0 19
-62 34 -125 28 -36 -2 -65 -1 -65 3 0 4 9 15 20 25 37 33 25 40 -78 42 -53 1
-161 8 -239 17 -170 19 -196 19 -248 0z m205 -33 c36 -5 100 -13 143 -17 42
-3 77 -10 77 -16 0 -11 -169 -91 -262 -124 -90 -32 -135 -30 -322 11 -88 19
-162 35 -165 36 -3 0 82 26 189 58 107 31 202 60 210 63 8 4 26 5 40 2 14 -2
54 -8 90 -13z m309 -82 c7 -23 11 -42 9 -44 -2 -2 -32 -15 -68 -30 -36 -15
-131 -58 -213 -97 -81 -38 -153 -68 -160 -65 -6 2 15 16 47 30 33 15 57 30 54
33 -4 3 -29 -6 -57 -20 -28 -15 -51 -22 -51 -18 0 8 59 37 181 90 26 11 50 25
53 31 9 14 -8 7 -137 -53 -54 -25 -103 -46 -108 -46 -6 0 -9 10 -7 23 2 17 10
22 33 23 17 1 75 27 130 57 84 48 255 126 276 127 3 0 11 -18 18 -41z m159
-13 c32 -17 140 -116 127 -116 -6 0 -23 9 -39 19 -17 11 -33 18 -38 15 -4 -3
-8 -29 -8 -59 0 -43 -5 -60 -26 -84 -30 -36 -48 -40 -39 -11 6 20 -9 50 -25
50 -5 0 -18 -16 -30 -35 -12 -19 -26 -33 -31 -30 -5 3 -7 32 -5 63 4 53 7 59
41 80 38 24 39 42 2 42 -22 1 -22 1 -2 16 17 13 18 16 5 24 -8 5 -23 10 -32
10 -29 0 -21 18 10 23 52 8 63 7 90 -7z m-93 -82 c11 -5 -18 -26 -97 -71 -62
-35 -156 -91 -209 -123 l-96 -59 -147 51 c-80 28 -145 52 -143 54 2 2 52 -11
111 -28 l108 -32 119 63 c131 69 307 151 326 151 6 0 19 -3 28 -6z m-764 -34
c89 -18 211 -48 215 -53 1 -1 5 -14 9 -28 l6 -26 -198 43 c-109 24 -208 44
-220 44 -13 0 -23 4 -23 9 0 5 16 5 38 0 50 -12 125 -11 97 1 -11 5 -36 9 -55
9 -19 1 -42 6 -50 11 -26 17 81 11 181 -10z m689 -81 c-6 -19 -8 -46 -5 -60 6
-24 -5 -34 -122 -121 -136 -100 -219 -158 -226 -158 -8 0 -37 79 -37 101 0 34
29 79 51 79 11 0 40 13 63 30 52 35 280 169 283 166 2 -1 -2 -18 -7 -37z
m-600 -142 l192 -72 4 -37 c2 -21 8 -47 14 -59 11 -19 10 -20 -12 -14 -98 30
-479 203 -492 224 -12 18 20 13 116 -20 49 -17 92 -29 95 -25 6 6 -15 15 -115
51 -77 28 -82 31 -32 27 21 -2 124 -36 230 -75z m656 73 l26 -10 -48 -37 c-27
-20 -92 -73 -144 -118 -52 -45 -121 -101 -153 -125 -68 -51 -42 -56 -297 53
-260 111 -338 149 -316 155 10 2 69 -20 130 -49 61 -29 176 -78 255 -109 l144
-57 121 92 c67 50 151 113 188 139 45 31 65 52 61 62 -6 17 -3 17 33 4z m184
-114 c0 -44 -5 -60 -25 -84 -34 -40 -79 -56 -100 -36 -18 18 -19 62 -3 101 11
27 12 27 15 6 3 -13 5 -23 7 -23 1 0 24 20 50 45 27 25 50 45 52 45 2 0 4 -24
4 -54z m-1138 4 c21 -6 68 -28 105 -49 38 -21 85 -44 106 -52 20 -7 37 -17 37
-22 0 -5 7 -6 16 -3 8 3 13 2 10 -3 -3 -4 12 -16 34 -26 75 -34 70 -43 -32
-47 -111 -6 -117 -3 -267 116 -68 54 -97 82 -88 88 16 10 35 10 79 -2z m928
-93 c71 -52 82 -45 -108 -72 -109 -16 -143 -14 -112 5 8 5 15 15 15 22 1 7 7
12 14 10 16 -3 102 68 96 79 -13 20 39 -4 95 -44z m457 40 c3 -3 -4 -19 -16
-35 -14 -21 -27 -29 -40 -25 -14 4 -24 -7 -44 -47 -15 -29 -41 -63 -59 -76
l-32 -24 -28 27 c-15 15 -28 32 -28 39 0 18 77 131 97 144 18 10 138 8 150 -3z
m-249 -169 c12 -13 33 -47 47 -74 18 -33 24 -40 20 -21 -3 16 -1 27 5 27 6 0
9 4 5 9 -6 10 41 51 59 51 19 0 38 -40 31 -69 -13 -59 -119 -144 -169 -134
-49 10 -137 113 -95 113 15 0 39 64 39 105 0 31 2 34 18 26 9 -5 27 -20 40
-33z m698 -73 c21 -50 18 -73 -16 -112 -21 -23 -30 -44 -30 -68 0 -29 -4 -36
-26 -41 -29 -7 -44 7 -44 41 0 11 -9 35 -21 54 -16 27 -18 36 -7 42 12 8 34
13 50 10 4 0 5 6 2 14 -5 11 -2 13 10 9 9 -3 16 -2 16 4 0 6 -5 12 -11 14 -8
3 -6 14 5 36 23 44 53 43 72 -3z m-804 -75 c36 -52 100 -94 131 -86 13 3 41
20 63 37 45 35 54 25 34 -37 -30 -90 -119 -140 -233 -132 -34 3 -75 11 -92 18
-16 7 -33 14 -37 14 -4 1 -12 6 -19 13 -10 10 -6 14 14 22 15 6 27 14 27 19 0
4 -18 21 -40 38 -41 29 -57 61 -46 90 11 28 41 11 46 -25 6 -39 25 -52 33 -21
8 30 21 25 46 -20 12 -22 26 -38 30 -35 12 7 -3 80 -22 109 -12 18 -13 26 -4
29 28 12 43 4 69 -33z m-224 -27 c-7 -25 -6 -43 2 -61 6 -15 7 -29 2 -34 -5
-5 -90 -38 -188 -72 -98 -35 -196 -71 -216 -80 l-38 -16 -26 40 c-31 47 -27
64 21 84 20 9 34 20 31 25 -3 5 5 12 19 15 13 3 32 14 42 24 10 10 46 27 81
37 61 18 89 35 58 35 -8 0 -67 -16 -130 -35 -64 -19 -118 -35 -121 -35 -3 0 2
11 11 25 21 33 59 42 249 64 232 27 215 28 203 -16z m853 -12 c28 -28 38 -51
22 -51 -5 1 -34 7 -67 15 -49 12 -71 12 -142 0 -53 -9 -93 -21 -110 -34 -15
-12 -41 -21 -60 -21 -19 0 -34 1 -34 3 1 1 7 25 14 52 l13 50 149 5 c82 3 157
7 167 8 10 1 32 -11 48 -27z m-1518 -37 c72 -36 157 -101 157 -121 0 -9 12
-36 26 -60 24 -42 24 -44 5 -33 -29 15 -175 133 -247 199 -58 54 -59 54 -26
48 19 -4 57 -18 85 -33z m-87 -55 c10 -12 48 -44 84 -72 36 -28 93 -75 126
-104 l62 -53 73 34 c41 19 115 46 164 61 50 15 132 43 184 62 84 31 95 33 109
19 18 -17 30 -11 -153 -82 -66 -25 -158 -63 -205 -84 -121 -54 -217 -90 -241
-90 -13 0 -43 24 -77 61 -32 34 -99 95 -149 136 -51 40 -93 75 -93 78 0 7 74
54 86 54 6 1 19 -8 30 -20z m851 -111 c-15 -94 -20 -98 -181 -184 -406 -214
-461 -244 -467 -244 -3 0 2 24 12 52 10 29 21 79 24 110 7 55 8 58 43 69 21 7
107 44 192 82 164 74 346 146 369 147 9 0 12 -9 8 -32z m-843 -58 c5 0 43 -34
86 -76 55 -53 81 -87 89 -116 7 -22 15 -47 18 -57 3 -9 1 -12 -4 -6 -12 15
-33 17 -33 3 0 -6 8 -21 17 -32 10 -12 1 -5 -20 13 -20 19 -37 30 -37 25 0 -6
5 -15 12 -22 17 -17 1 -27 -18 -11 -9 7 -56 59 -104 115 l-88 100 16 58 16 58
21 -26 c11 -14 25 -26 29 -26z m-108 -49 c-4 -5 6 -22 21 -38 16 -16 79 -84
141 -151 100 -107 112 -124 102 -142 -6 -11 -12 -20 -15 -20 -5 0 -183 214
-233 281 -45 60 -51 79 -26 79 8 0 13 -4 10 -9z"/>
<path d="M2653 1224 c-3 -8 -4 -73 -1 -144 4 -122 7 -133 38 -195 33 -66 79
-115 106 -115 9 0 14 12 14 38 l1 37 24 -45 c24 -47 91 -118 100 -108 4 3 3
33 -1 67 -6 60 -7 60 -25 38 l-18 -22 -1 32 c-1 81 -48 222 -85 253 -26 21
-34 1 -37 -90 l-3 -85 -10 105 c-6 58 -7 109 -3 114 5 6 20 1 38 -12 l30 -23
0 22 c0 27 -118 149 -144 149 -9 0 -19 -7 -23 -16z"/>
<path d="M2495 1200 c-4 -6 -2 -25 4 -43 5 -17 17 -82 26 -144 17 -124 31
-172 68 -230 45 -71 82 -84 59 -20 -6 17 -22 104 -36 193 -25 166 -40 211 -78
238 -26 19 -35 20 -43 6z"/>
<path d="M2349 1181 c-22 -18 -24 -25 -23 -132 0 -127 16 -197 66 -291 41 -77
70 -103 97 -89 24 13 25 32 14 169 -7 91 -14 90 -33 -3 l-13 -60 -12 35 c-7
19 -15 66 -19 103 -7 62 -6 71 13 88 46 43 7 199 -49 199 -10 0 -28 -9 -41
-19z"/>
<path d="M2034 1157 c-9 -24 43 -306 76 -408 27 -88 52 -131 66 -116 3 3 1 56
-5 118 -6 63 -11 143 -11 179 l1 65 23 -70 c36 -112 100 -215 132 -215 18 0
18 6 -6 74 -10 31 -29 110 -40 174 -23 127 -42 177 -72 193 -28 15 -46 5 -55
-31 l-8 -32 -25 39 c-26 40 -66 56 -76 30z"/>
<path d="M1890 958 c0 -143 17 -232 58 -314 34 -67 64 -99 87 -91 12 5 15 24
15 87 0 44 -4 80 -8 80 -4 0 -14 -21 -21 -47 l-13 -48 -10 33 c-7 26 -5 37 14
62 18 25 22 44 23 103 0 63 -4 80 -34 137 -36 70 -77 120 -98 120 -10 0 -13
-28 -13 -122z"/>
<path d="M1746 965 c-3 -8 -1 -27 4 -41 6 -14 17 -74 25 -133 19 -134 36 -194
75 -254 46 -73 87 -80 57 -10 -9 21 -28 115 -42 208 -21 134 -32 178 -51 208
-25 38 -57 49 -68 22z"/>
<path d="M1125 907 c-40 -40 -55 -89 -55 -182 0 -97 40 -249 60 -229 6 6 4 30
-5 64 -15 58 -18 157 -6 200 7 22 9 17 19 -30 7 -30 23 -127 37 -215 33 -204
51 -276 87 -348 53 -107 61 -68 24 123 l-25 125 33 30 c47 43 59 90 54 202 -5
82 -10 103 -42 168 -61 124 -119 154 -181 92z"/>
<path d="M1609 924 c-30 -37 -20 -267 17 -374 14 -40 14 -51 1 -100 -17 -63
-20 -57 -37 60 -15 101 -35 157 -62 171 -35 19 -43 -3 -42 -114 1 -56 0 -84
-2 -62 -2 22 -9 76 -14 120 -9 71 -8 81 7 93 9 6 27 12 40 12 23 0 23 1 9 29
-23 44 -136 81 -149 49 -9 -25 12 -294 27 -344 39 -125 148 -200 132 -90 -5
35 -4 38 7 21 20 -33 84 -95 97 -95 10 0 11 18 7 73 -3 39 -3 80 1 90 7 16 11
13 32 -19 30 -44 51 -59 74 -51 13 5 16 21 16 84 0 97 -10 184 -20 178 -5 -3
-11 -32 -15 -65 -13 -113 -32 -82 -42 69 -4 66 -3 92 5 87 28 -17 25 109 -4
167 -17 31 -63 38 -85 11z"/>
</g>
</svg>
